Coordinates
version=1
nRows=22
nColumns=24
inDegrees=yes

Units are S.I. units (second, meters, Newtons, ...)
Angles are in degrees.

endheader
time	pelvis_tilt	pelvis_list	pelvis_rotation	pelvis_tx	pelvis_ty	pelvis_tz	hip_flexion_r	hip_adduction_r	hip_rotation_r	knee_angle_r	ankle_angle_r	subtalar_angle_r	mtp_angle_r	hip_flexion_l	hip_adduction_l	hip_rotation_l	knee_angle_l	ankle_angle_l	subtalar_angle_l	mtp_angle_l	lumbar_extension	lumbar_bending	lumbar_rotation
      2.23500000	     -6.64569869	     -1.35107652	      0.71996923	      0.48137409	      1.22404088	     -0.81923656	      1.26063584	      6.25403818	     -3.34864887	    -36.36112061	      2.60859846	      9.47741299	     26.93716464	     30.46793898	      7.90530942	      9.90425489	    -19.99245673	    -10.45498499	     -9.91382959	      7.13763814	     -4.85177840	      0.99831718	      3.80815235
      2.24000000	     -6.54457265	     -1.01441964	      0.94488542	      0.48751057	      1.22429580	     -0.81974850	      2.11639142	      5.51338737	     -4.32539562	    -38.46202750	      1.22209897	      9.57453108	     27.69161315	     30.15281477	      8.46496838	     10.17222780	    -20.50574578	    -10.40597015	    -10.15115944	      7.08581208	     -4.85993627	      0.51835228	      3.61824094
      2.24500000	     -6.44426639	     -0.66668528	      1.16986834	      0.49364531	      1.22458874	     -0.82024628	      2.97415811	      4.75027820	     -5.21675486	    -40.50668049	     -0.25852268	      9.49040674	     28.20862031	     29.77731582	      9.02400805	     10.41894806	    -20.91789866	    -10.29178248	    -10.35339917	      7.07192672	     -4.86164396	      0.03081977	      3.43896921
      2.25000000	     -6.35286745	     -0.31155150	      1.39503839	      0.49974268	      1.22488143	     -0.82074191	      3.85085208	      3.96789078	     -6.03169895	    -42.50938136	     -1.74836117	      9.27175534	     28.48069084	     29.36456641	      9.58209863	     10.65315083	    -21.24843005	    -10.12287590	    -10.54078150	      7.07968450	     -4.85806741	     -0.45662228	      3.26702683
      2.25500000	     -6.29591018	      0.03411934	      1.62321711	      0.50579544	      1.22515417	     -0.82125678	      4.77211768	      3.19356589	     -6.76263441	    -44.46105192	     -3.20930944	      8.88799211	     28.45876946	     28.95369506	     10.12814096	     10.89030461	    -21.51493989	     -9.92200859	    -10.74866912	      7.09853045	     -4.82025692	     -0.92322559	      3.09856231
      2.26000000	     -6.25810987	      0.36924099	      1.84838665	      0.51180739	      1.22543796	     -0.82176374	      5.71290368	      2.43968604	     -7.39982062	    -46.34380909	     -4.60863590	      8.33235038	     28.08728937	     28.52792448	     10.65110591	     11.10942421	    -21.71753060	     -9.68385335	    -10.93129842	      7.13894606	     -4.76616283	     -1.37242348	      2.93675618
      2.26500000	     -6.20343314	      0.69368509	      2.05219977	      0.51777027	      1.22579389	     -0.82224634	      6.62406576	      1.71697308	     -7.92012040	    -48.13795300	     -6.00621498	      7.77980673	     26.96172158	     28.02067212	     11.13544789	     11.31729608	    -21.80468291	     -9.41198379	    -11.08274356	      7.22340013	     -4.72864518	     -1.80285764	      2.83883793
      2.27000000	     -6.18817473	      0.99374294	      2.27211329	      0.52365668	      1.22611066	     -0.82272409	      7.58067512	      1.03817179	     -8.38696272	    -49.85702500	     -7.05685493	      6.87778290	     26.23677698	     27.57527306	     11.59190578	     11.47168551	    -21.91813707	     -9.07783712	    -11.14623319	      7.30445794	     -4.66844451	     -2.20106633	      2.64883364
      2.27500000	     -6.13881594	      1.28082104	      2.46694837	      0.52951228	      1.22653951	     -0.82317652	      8.47879493	      0.39737010	     -8.75126540	    -51.47156675	     -8.09220881	      6.16440841	     24.50354942	     27.02401966	     11.99978640	     11.60850509	    -21.90604779	     -8.70416174	    -11.10501545	      7.42883379	     -4.63908331	     -2.57613744	      2.52071258
      2.28000000	     -6.12654304	      1.51427613	      2.65819649	      0.53524795	      1.22695149	     -0.82364803	      9.43107259	     -0.15941518	     -9.04904698	    -52.99391572	     -8.86890915	      5.15755296	     23.23039271	     26.52205629	     12.35029637	     11.75940270	    -21.89826533	     -8.29556399	    -11.05184612	      7.53764795	     -4.58322653	     -2.88524970	      2.44563839
      2.28500000	     -6.11231842	      1.73061427	      2.83373409	      0.54094337	      1.22742345	     -0.82406731	     10.36754848	     -0.65940623	     -9.26248395	    -54.40957858	     -9.38961338	      4.11934033	     21.72591646	     25.99988210	     12.65378485	     11.83726498	    -21.84813818	     -7.86626305	    -10.91681281	      7.65847359	     -4.54124989	     -3.16858051	      2.28584346
      2.29000000	     -6.10309339	      1.90461630	      2.99754769	      0.54653620	      1.22792229	     -0.82448729	     11.31191897	     -1.08505200	     -9.41791986	    -55.71770985	     -9.72243428	      2.99175205	     20.31081460	     25.48464647	     12.90167716	     11.90703042	    -21.78790278	     -7.41393405	    -10.74393894	      7.77620038	     -4.50278434	     -3.39905712	      2.17695728
      2.29500000	     -6.12818288	      2.03196267	      3.13385316	      0.55202315	      1.22843043	     -0.82488929	     12.30999526	     -1.42109637	     -9.48918878	    -56.91424484	     -9.87846237	      1.68817220	     19.37026596	     25.01851340	     13.08778857	     11.94918451	    -21.72967532	     -6.99163341	    -10.64209371	      7.87711895	     -4.44303503	     -3.56845612	      2.08625208
      2.30000000	     -6.10949639	      2.13486685	      3.27554046	      0.55747540	      1.22903763	     -0.82527648	     13.22577231	     -1.70742967	     -9.54388788	    -57.98507873	     -9.87271690	      0.62739828	     17.68659607	     24.47578160	     13.22741032	     11.98800641	    -21.61792516	     -6.46187765	    -10.26169330	      8.01706207	     -4.43322102	     -3.70638636	      1.98728538
      2.30500000	     -6.11728316	      2.20676507	      3.38973383	      0.56282230	      1.22963500	     -0.82563863	     14.19043713	     -1.92925026	     -9.53678445	    -58.95418915	     -9.72498511	     -0.54620191	     16.48092297	     23.98656863	     13.32506698	     11.98637277	    -21.52907637	     -5.98446866	     -9.98172251	      8.10531913	     -4.40994362	     -3.80397772	      1.90264551
      2.31000000	     -6.13649085	      2.23409577	      3.48841787	      0.56809474	      1.23026590	     -0.82598139	     15.16087932	     -2.06359814	     -9.47469570	    -59.78994004	     -9.44905631	     -1.71375911	     15.40951734	     23.50816360	     13.36520202	     11.99097719	    -21.42420600	     -5.50158474	     -9.67461647	      8.20970587	     -4.38761843	     -3.84413628	      1.81425568
      2.31500000	     -6.19072023	      2.25097965	      3.55487285	      0.57330072	      1.23086468	     -0.82628735	     16.18979088	     -2.15901649	     -9.35169505	    -60.53698238	     -9.09232760	     -2.87267297	     14.65441235	     23.08000370	     13.38386919	     11.95879531	    -21.32156960	     -5.07927690	     -9.47087159	      8.30149613	     -4.33616102	     -3.86691607	      1.74401138
      2.32000000	     -6.19866032	      2.22538237	      3.63003829	      0.57845577	      1.23154597	     -0.82658219	     17.12923288	     -2.18112092	     -9.22889268	    -61.13303052	     -8.59705366	     -3.83773783	     13.54019522	     22.61217632	     13.34865648	     11.91932292	    -21.23590553	     -4.55119502	     -9.03878030	      8.38547975	     -4.34158832	     -3.84174466	      1.66144862
      2.32500000	     -6.26558811	      2.20433720	      3.66437381	      0.58354892	      1.23215482	     -0.82683197	     18.16289117	     -2.18070201	     -9.03085232	    -61.65295924	     -8.05390129	     -4.78998293	     12.93720895	     22.20721182	     13.31183047	     11.87038805	    -21.12561166	     -4.15635630	     -8.83593975	      8.44916779	     -4.29560900	     -3.81555816	      1.59471394
      2.33000000	     -6.29901372	      2.13557342	      3.70250530	      0.58857693	      1.23279601	     -0.82708149	     19.13090647	     -2.10071083	     -8.83145393	    -62.03183693	     -7.44494745	     -5.60349292	     12.11945437	     21.79836170	     13.22550409	     11.82528620	    -21.07220368	     -3.63651727	     -8.47365472	      8.51830206	     -4.29183530	     -3.73236628	      1.55508549
      2.33500000	     -6.34609810	      2.09885766	      3.72818117	      0.59354162	      1.23340661	     -0.82729571	     20.12064386	     -2.04460181	     -8.59363890	    -62.33234352	     -6.70714595	     -6.26299050	     11.67825692	     21.39493593	     13.17093762	     11.79115667	    -20.98345294	     -3.31590590	     -8.27847094	      8.55852332	     -4.29799795	     -3.68259862	      1.47570652
      2.34000000	     -6.43487134	      2.01125262	      3.71955750	      0.59856580	      1.23399470	     -0.82745199	     21.13032730	     -1.88912311	     -8.31250571	    -62.48942929	     -6.03850826	     -6.84878962	     11.05730673	     21.04969339	     13.04265134	     11.67344881	    -20.91420848	     -2.83189428	     -7.96335865	      8.61405754	     -4.24105521	     -3.57405408	      1.40076368
